<?xml version="1.0" encoding="UTF-8" standalone="no"?>
<!-- Created with Inkscape (http://www.inkscape.org/) -->

<svg
   xmlns:dc="http://purl.org/dc/elements/1.1/"
   xmlns:cc="http://creativecommons.org/ns#"
   xmlns:rdf="http://www.w3.org/1999/02/22-rdf-syntax-ns#"
   xmlns:svg="http://www.w3.org/2000/svg"
   xmlns="http://www.w3.org/2000/svg"
   xmlns:sodipodi="http://sodipodi.sourceforge.net/DTD/sodipodi-0.dtd"
   xmlns:inkscape="http://www.inkscape.org/namespaces/inkscape"
   width="297mm"
   height="210mm"
   viewBox="0 0 1052.3622 744.09449"
   id="svg4248"
   version="1.1"
   inkscape:version="0.91pre2 r13516"
   sodipodi:docname="biplan (1).svg">
  <defs
     id="defs4250" />
  <sodipodi:namedview
     id="base"
     pagecolor="#ffffff"
     bordercolor="#666666"
     borderopacity="1.0"
     inkscape:pageopacity="0.0"
     inkscape:pageshadow="2"
     inkscape:zoom="1"
     inkscape:cx="467.76678"
     inkscape:cy="332.63621"
     inkscape:document-units="px"
     inkscape:current-layer="layer1"
     showgrid="false"
     inkscape:window-width="1440"
     inkscape:window-height="900"
     inkscape:window-x="-8"
     inkscape:window-y="-8"
     inkscape:window-maximized="1"
     showguides="true" />
  <metadata
     id="metadata4253">
    <rdf:RDF>
      <cc:Work
         rdf:about="">
        <dc:format>image/svg+xml</dc:format>
        <dc:type
           rdf:resource="http://purl.org/dc/dcmitype/StillImage" />
        <dc:title></dc:title>
      </cc:Work>
    </rdf:RDF>
  </metadata>
  <g
     inkscape:label="Layer 1"
     inkscape:groupmode="layer"
     id="layer1"
     transform="translate(0,-308.26772)">
    <path
       style="fill:none;stroke:#ff0000;stroke-width:0.2;stroke-miterlimit:4;stroke-dasharray:none;stroke-opacity:1"
       d="m 666.05734,880.31984 c 0.76476,1.86268 0.76602,2.07576 0.0189,3.36867 -0.89909,1.5559 -1.13751,3.71926 -0.67855,6.15601 0.17082,0.90715 0.44884,2.67217 0.61786,3.92236 0.70319,5.20237 1.01731,7.45061 1.49291,10.68637 5.52938,34.10007 5.01726,74.67655 15.13826,103.54875 2.19334,5.2815 8.01753,12.9925 11.70555,15.4978 7.7525,5.266 12.29048,6.9628 20.13752,7.5293 8.39646,0.6059 26.35562,1.0406 29.7117,0.7188 3.84476,-0.3688 5.4419,-1.6786 7.12131,-5.8405 4.47118,-28.6052 1.72891,-65.76548 3.63373,-103.01467 0.26606,-4.56879 0.48707,-12.16329 0.49068,-16.8766 l 0.007,-8.56976 -2.05514,-3.50732 c -1.13038,-1.92908 -2.95619,-4.83184 -4.0574,-6.45066 -1.1011,-1.6189 -2.14898,-3.41479 -2.32846,-3.99095 -0.34752,-1.11505 -0.17745,-1.47873 3.32259,-7.1037 1.04036,-1.67198 2.67588,-4.31065 3.6346,-5.8636 l 1.74314,-2.82363 0.0346,-5.18259 c 0.0333,-4.99653 -0.0114,-9.54188 -0.22166,-22.55583 -0.0543,-3.3509 -0.13164,-8.83341 -0.17224,-12.18337 -0.23653,-18.73872 -0.68057,-38.28615 -0.59396,-56.39201 0.0269,-4.83371 0.0141,-11.42805 -0.0285,-14.6542 -0.0427,-3.22616 0.0163,-7.38444 0.13077,-9.24071 0.35666,-5.81788 -1.60587,-10.36368 -5.52663,-12.78703 -1.7942,-1.10906 -2.30643,-1.20919 -6.23708,-1.21932 -23.91432,-0.062 -26.58619,-0.007 -29.85803,0.61428 -11.4283,2.16998 -21.8667,9.62464 -27.4291,19.58866 -3.38148,6.05734 -4.08621,9.0892 -6.54796,28.17343 -3.28683,22.5974 -5.99728,42.43599 -9.36438,64.573 -0.39217,2.57954 -1.10548,7.60781 -1.58509,11.17395 -0.98958,7.35793 -2.41961,17.2152 -2.69039,18.54512 -0.38989,1.91474 -0.35655,2.23538 0.43377,4.15994 z"
       id="path4364"
       inkscape:connector-curvature="0"
       sodipodi:nodetypes="csccccccsccscsccsscscccccccssccsccc" />
    <path
       style="fill:none;stroke:#000000;stroke-width:0.2;stroke-miterlimit:4;stroke-dasharray:none;stroke-opacity:1"
       d="m 51.267075,765.85953 c 7.703184,0.0231 8.787707,-0.2817 9.419248,-2.64688 3.924805,-19.34235 7.109166,-39.0677 10.464743,-58.58545 1.37713,-7.83321 3.58524,-20.66741 4.906914,-28.52043 1.321674,-7.85303 2.567099,-14.62308 2.767617,-15.04455 0.292112,-0.61398 0.128999,-0.78099 -0.820721,-0.84015 -9.701443,-2.13756 -8.40869,-21.4667 -6.380748,-27.90061 1.14329,-3.13924 2.853073,-5.09449 5.103641,-5.83632 1.161323,-0.3828 1.821389,-0.88195 1.853771,-1.40185 0.02766,-0.44406 -0.559477,-4.26282 -1.304747,-8.48616 -0.745272,-4.22333 -1.626039,-9.3188 -1.957253,-11.32326 -0.331214,-2.00447 -1.128331,-6.51775 -1.771368,-10.02952 -1.104758,-6.03334 -2.467918,-13.88667 -5.560891,-32.0371 -0.01878,-6.17256 -2.027317,-12.24519 -2.907096,-17.45948 -2.413613,-14.49055 -4.107217,-23.45762 -4.545199,-24.0653 -0.375499,-0.52098 -2.187488,-0.69095 -9.705248,-0.91035 -5.083949,-0.14837 -9.752609,-0.24046 -10.37479,-0.20462 -0.622178,0.0358 -1.510762,0.0674 -1.97463,0.0702 -0.920312,0.005 -0.95557,0.67532 -0.878227,16.68511 -0.192042,13.65382 -0.183043,23.9343 -0.255591,32.44686 -0.09485,10.20819 -0.124396,17.6644 -0.125897,31.77864 -9.63e-4,8.91558 0.01841,33.97037 0.03032,39.22775 0.0045,1.98412 -0.02501,7.35893 -0.06558,11.94403 -0.147177,34.74279 -0.406704,54.82128 -0.08723,84.7585 0.05254,4.83888 0.08591,12.55087 0.07417,17.13776 -0.01174,4.58689 0.03567,9.03129 0.105351,9.87645 l 0.12671,1.53666 3.467863,-0.0953 c 1.907328,-0.0524 6.584831,-0.086 10.39445,-0.0746 z"
       id="path4350"
       inkscape:connector-curvature="0"
       sodipodi:nodetypes="cccssccsssssccssccccssccsscscc" />
    <path
       style="fill:none;stroke:#0000ff;stroke-width:0.2;stroke-miterlimit:4;stroke-dasharray:none;stroke-opacity:1"
       d="m 243.4407,865.61697 c 0.30757,10.72833 4.61766,10.13586 12.33998,12.87009 7.72232,2.73422 16.10686,5.10765 24.31335,7.39275 2.98963,0.88927 11.83623,3.18846 16.03242,4.36844 9.21469,2.59123 14.16547,3.99176 15.74775,4.58526 0,0 0.90856,0.30911 1.10997,-0.0842 0.74121,-1.44759 1.1681,-6.00275 1.1681,-6.00275 l 1.47211,-6.64071 0.59272,-1.35063 c 1.85264,-0.17648 15.03705,1.03471 28.13406,2.23403 6.54851,0.59966 16.47811,1.24054 21.55553,1.85819 5.07741,0.61765 5.30263,1.21206 6.05415,1.89556 4.31806,3.95524 9.39677,8.13586 10.26393,8.78976 0.72007,0.54305 2.55547,0.71764 8.97947,0.85418 7.00658,0.1489 27.98454,0.51375 36.11823,0.89815 4.75974,0.22495 5.44267,0.47635 2.523,-3.0459 -1.42751,-1.72222 -3.80885,-4.29859 -4.75168,-5.45519 -6.53504,-7.02825 -12.73107,-14.57908 -18.38251,-20.90771 -1.27929,-1.47029 -2.92584,-3.57013 -3.88812,-4.58991 -1.12993,-1.91922 -3.05537,-3.65365 -4.2665,-5.00774 -4.52149,-5.11488 -5.67227,-6.05231 -5.67227,-6.05231 0,0 -1.93584,-5.23013 -2.93008,-8.27202 -0.99425,-3.0419 -2.13728,-6.40507 -2.54004,-7.47371 -0.40275,-1.06864 -0.96646,-2.59663 -1.25286,-3.39556 -0.2863,-0.79891 0.1178,-0.18554 -0.70622,-0.77584 -1.68851,-1.20968 -19.19402,-11.54991 -25.95328,-14.82171 -4.30736,-2.08498 -4.52927,-2.14515 -7.84943,-2.12847 -28.72314,1.19484 -50.61935,4.09497 -76.82624,11.11431 -10.88486,2.95185 -25.81966,8.82482 -28.1114,11.05453 -1.46462,1.425 -2.87426,4.11438 -2.80431,5.35018 -0.81614,7.02394 -0.51368,18.01414 -0.46983,22.73897 z"
       id="path4362-3"
       inkscape:connector-curvature="0"
       sodipodi:nodetypes="cscssscccssccssccccccssccsccsccc" />
    <path
       style="fill:none;stroke:#ff0000;stroke-width:0.2;stroke-miterlimit:4;stroke-dasharray:none;stroke-opacity:1"
       d="m 784.9371,560.46506 c -1.13509,1.46728 -2.69258,4.18299 -3.46108,5.00877 -0.7685,0.82579 -2.69599,3.83992 -3.85132,5.29379 -1.72446,1.47988 -3.01375,2.09322 -4.96329,3.25223 -31.2313,5.86262 -54.31031,7.98392 -81.86331,11.88309 -28.59839,4.04996 -28.79165,4.08348 -39.24658,6.81219 -36.15298,10.49238 -65.34969,17.38579 -98.24022,25.92037 -8.30887,2.15485 -25.8352,6.71882 -38.9474,10.14225 l -23.84036,6.22435 c -37.4703,-2.6275 -71.70842,-5.64986 -102.63695,-3.14984 -1.14238,0.16408 -8.16873,1.87685 -15.61659,3.78984 l -13.54157,3.47818 -6.19097,-0.0422 c -7.31119,-0.0498 -14.8774,-0.0876 -23.04454,-0.11505 -42.95992,-1.86967 -92.94704,0.38913 -135.98034,-17.82386 -1.13877,-0.49762 -2.83793,-1.23602 -3.77596,-1.64105 -0.93802,-0.40502 -2.71812,-1.17427 -3.95575,-1.70942 -1.23764,-0.53514 -2.83404,-1.60087 -3.54755,-2.36828 -1.14359,-1.23007 -1.36487,-1.87266 -1.86735,-5.42257 -0.3135,-2.21506 -0.54813,-5.35426 -0.52131,-6.97614 0.0268,-1.62187 -0.1396,-4.82283 -0.2169,-7.18942 -0.40242,-12.31395 0.0974,-14.61813 3.81644,-17.75115 17.94722,-6.07476 32.45461,-10.35068 56.37727,-16.71073 0.49428,-0.15407 2.4395,-0.84049 4.37183,-1.30316 1.93235,-0.46258 3.69447,-1.01473 4.10608,-1.13504 0.86001,-0.0459 1.17788,0.30532 2.07645,6.13148 0.60889,3.94792 0.92866,6.73601 1.93781,7.77432 0.6114,0.59638 2.61928,0.18324 6.16243,-0.0837 2.95059,-0.22223 11.31917,-0.93041 18.7319,-1.79476 7.41273,-0.64329 17.06698,-1.36997 21.39331,-1.73056 9.11071,-0.75938 7.92212,-0.89828 15.67691,-7.62616 2.45285,-2.12798 4.88907,-3.93457 5.41382,-4.01459 9.7024,-0.63661 18.91003,-0.48635 27.70254,-0.61384 8.79251,-0.12748 17.16991,-0.53273 25.38861,-0.33581 16.43742,0.39383 32.06332,1.25175 48.22207,1.83486 15.48789,0.55906 23.48848,0.82575 44.38015,1.4793 4.02497,0.12589 11.20222,-0.0827 15.94459,0.0822 4.86954,0.1693 15.04289,0.0774 23.03801,-0.0303 7.9951,-0.10786 20.79003,-0.30595 28.28035,-0.44042 27.35796,-0.39658 49.4591,-0.39042 74.38474,-1.0745 5.15223,-0.10376 9.69618,-1.13176 10.25041,-1.36791 1.92121,-0.81826 19.9379,-20.57334 27.08339,-29.69645 0.44537,-0.56863 2.08668,-2.59157 3.64742,-4.4954 3.70333,-4.51748 4.89533,-6.0162 11.03641,-13.87575 4.55936,-5.83529 7.69683,-9.8041 11.07242,-14.00648 1.71989,-2.14113 3.51361,-4.26773 6.16588,-7.31021 1.38287,-1.58629 2.59768,-3.00908 2.69954,-3.16167 0.61238,-0.9169 9.84242,-11.11512 11.49222,-12.69761 3.18584,-3.05587 8.66158,-7.0191 12.21666,-8.84235 18.07227,-7.26158 37.5607,-6.44854 56.14679,-5.95816 0.0856,0.0638 0.0903,0.83069 0.009,1.70521 -0.0811,0.87452 -0.15452,3.12743 -0.16316,5.0065 -0.0235,5.06452 -0.0686,8.61054 -0.14217,11.17413 -0.0362,1.25733 -0.0528,3.92279 -0.0371,5.92327 0.39579,16.27819 -0.35939,30.58742 -0.73846,45.51899 -0.0336,1.31953 -0.11976,5.03964 -0.19138,8.26692 -0.11811,5.31787 -0.22441,5.92098 -1.13452,6.43566 -0.55233,0.31233 -5.1798,1.61458 -10.28338,2.89384 -5.10356,1.27936 -12.43599,3.1173 -16.2943,4.08437 -17.31634,4.34005 -20.15156,5.32494 -20.95142,6.01409 -0.96132,0.82828 -2.15798,3.13297 -1.37326,3.83318 0.71996,0.64241 1.79253,0.65507 11.7846,0.13891 17.99493,-0.92947 53.66588,-2.69619 57.60326,-2.85283 2.23965,-0.0891 5.6434,-0.26858 7.56384,-0.39867 1.92042,-0.13018 3.39082,0.4839 3.42028,0.67708 0.0295,0.19316 0.003,0.65735 -0.58935,1.28686 -0.69436,1.39003 -1.56821,2.60734 -2.38959,3.67981 z"
       id="path4358"
       inkscape:connector-curvature="0"
       sodipodi:nodetypes="cscccccsccscsccssccssccccccccsccsscssccccssssccsccsccccccccscsccscc" />
    <path
       style="fill:none;stroke:#0000ff;stroke-width:0.2;stroke-miterlimit:4;stroke-dasharray:none;stroke-opacity:1"
       d="m 638.80106,950.63322 c -1.55728,-6.6271 -5.55764,-12.4227 -11.04883,-16.00726 -2.29359,-1.49722 -3.10023,-2.28342 -3.09938,-3.02084 2.14319,-7.56828 3.627,-15.10233 5.22631,-23.07243 -0.17048,-0.44426 -0.94932,-0.64944 -2.46519,-0.64944 -0.81189,0 -1.42002,-0.0504 -1.82401,-0.17582 -0.20199,-0.0627 -9.35748,0.18728 -9.45738,0.084 -0.0999,-0.10328 8.87687,-0.21959 8.95769,-0.62145 0.0591,-0.29415 0.11446,-0.78799 0.52859,-1.31177 0.41413,-0.52378 1.03317,-1.17175 1.85751,-1.96849 l 2.77983,-2.68677 0.30648,-5.99736 c 1.01842,-12.02735 0.35883,-24.47164 -0.25752,-35.47236 -0.48001,-10.82395 -3.66745,-37.97254 -4.81306,-40.99467 -0.32234,-0.85033 -1.30432,-1.55675 -3.59679,-2.5875 -1.73437,-0.77981 -3.35933,-1.41783 -3.61101,-1.41783 -0.0629,0 -0.11779,-0.0158 -0.16311,-0.0444 -0.0453,-0.0286 -0.0811,-0.0699 -0.10583,-0.12085 -0.0247,-0.051 -9.43744,-0.24325 -9.4386,-0.31049 -0.001,-0.0672 9.4092,-0.009 9.43459,-0.0868 0.0543,-0.16533 0.33173,-0.36164 0.74879,-0.56341 0.41706,-0.20177 0.97372,-0.40899 1.58639,-0.59613 0.61267,-0.18714 1.28135,-0.35421 1.92246,-0.47566 0.6411,-0.12145 1.25462,-0.19728 1.75698,-0.20198 l 1.39928,-0.0131 -2.61454,-3.87594 c -3.31143,-4.90908 -7.53509,-8.98947 -10.89674,-10.52712 -7.58349,-3.98766 -17.75201,1.34373 -22.9355,6.86284 -3.29966,3.65234 -7.35404,13.95245 -9.09916,23.11634 -1.50572,7.9067 -2.02762,14.88994 -2.02606,27.1093 0.70301,19.42431 0.57588,35.60515 6.30779,53.84895 0.70078,2.1429 2.5182,6.3954 4.03869,9.45 2.69277,5.40965 2.75711,5.62266 2.47853,8.20647 -0.50456,4.67988 -2.44405,8.41119 -6.29692,12.11446 -2.12276,2.0403 -6.2007,4.3579 -7.66798,4.3579 -0.36391,0 -0.66166,0.2641 -0.66166,0.5869 0,1.0775 2.51831,4.5718 4.27959,5.9381 4.26566,3.3091 4.29413,3.3576 4.74196,8.0911 0.87754,9.2754 4.93315,16.2333 12.36696,21.2169 19.24415,13.898 44.33432,-9.1929 41.36085,-28.18345 z"
       id="path4354-3-1"
       inkscape:connector-curvature="0"
       sodipodi:nodetypes="csccsssssscccsssssscsssccsccsccsssssssccc" />
    <path
       sodipodi:nodetypes="csccccsccsccscscsscccssscscsccsccsccccsccscsccccccccscsccc"
       inkscape:connector-curvature="0"
       id="path3371"
       d="m 146.66211,815.39273 c -0.86897,0.05 -3.91667,0.21681 -6.77149,0.37109 -2.85482,0.15427 -6.41173,0.40962 -7.90429,0.56641 -1.49256,0.15667 -4.34229,0.44795 -6.33203,0.64844 -1.98974,0.2006 -5.45086,0.59163 -7.69141,0.86914 -8.20546,1.01171 -21.15589,1.95463 -32.412114,5.20117 -18.23502,3.51522 -40.40348,11.29923 -44.04297,15.46484 -2.11814,2.42433 -2.68752,4.13192 -2.86914,8.61914 -0.46328,7.59419 -1.27437,15.79808 0.53906,24.33399 0.3768,0.8071 1.33146,2.1672 2.1211,3.02344 1.72752,1.87318 3.35115,2.4627 19.14648,6.94336 6.5209,1.85191 17.16968,5.59894 28.708994,8.375 0.85726,0.23955 3.9605,1.17149 6.89648,2.07226 8.49369,2.60589 9.39786,2.35547 11.77539,2.97266 0.87493,-2.02342 0.41614,-1.10732 1.92774,-8.9336 0.52107,-2.69783 1.09978,-5.02775 1.28515,-5.17968 0.32645,-0.26742 7.35327,0.29996 24.11719,1.94726 4.44099,0.43636 10.59845,0.97824 13.68555,1.20508 8.64698,0.63531 14.45259,1.20657 15.96093,1.57227 1.88407,0.45676 12.03419,10.10838 12.52735,11.91211 0.8024,2.51102 0.72647,6.36417 0.043,8.05078 -0.49316,1.80372 -10.64328,11.45534 -12.52735,11.91211 -1.50834,0.36569 -7.31394,0.9389 -15.96093,1.57421 -3.08711,0.22684 -9.24652,0.76872 -13.6875,1.20508 -16.76393,1.64731 -23.78879,2.21468 -24.11524,1.94727 -0.18537,-0.15193 -0.76408,-2.48381 -1.28515,-5.18164 -1.5116,-7.82627 -1.05281,-6.90822 -1.92774,-8.93164 -2.37753,0.61718 -3.2817,0.36481 -11.77539,2.9707 -2.93597,0.90077 -6.03922,1.83465 -6.89648,2.07422 -11.539324,2.77605 -22.188084,6.52308 -28.708994,8.375 -15.79534,4.48065 -17.42092,5.06821 -19.14844,6.94141 -0.78963,0.85623 -1.74234,2.21829 -2.11914,3.02539 -1.81343,8.5359 -1.00234,16.73979 -0.53906,24.33398 0.18162,4.48723 0.74905,6.19287 2.86719,8.61719 3.63948,4.16562 25.80989,11.95153 44.04492,15.46683 11.256224,3.2465 24.206654,4.1875 32.412114,5.1992 2.24056,0.2775 5.70167,0.6685 7.69141,0.8691 1.98973,0.2005 4.83947,0.4938 6.33203,0.6504 1.49256,0.1568 5.04947,0.4102 7.90429,0.5645 2.85483,0.1542 5.90055,0.3211 6.76953,0.3711 0.86898,0.05 2.24545,-0.02 3.0586,-0.1582 0.81314,-0.1381 8.18422,-3.9727 16.3789,-8.5196 14.16886,-7.86162 14.93035,-8.34787 15.53516,-9.94724 0.34978,-0.925 1.7407,-5.07106 3.0918,-9.21289 1.35111,-4.14173 2.71091,-8.19037 3.02148,-8.99609 8.47577,-8.58094 15.70647,-18.07826 22.7168,-25.88672 12.29346,-13.65674 15.24777,-17.03518 15.92773,-18.20703 0.34822,-0.60008 0.69366,-2.44156 0.76758,-4.0918 0.064,-1.42793 0.0595,-2.22322 -0.11719,-2.88281 -0.13366,-1.37113 -0.4079,-2.69752 -0.69336,-3.18946 -0.67997,-1.17185 -3.63427,-4.54833 -15.92773,-18.20507 -7.01031,-7.80846 -14.24102,-17.30775 -22.7168,-25.88868 -0.31056,-0.80571 -1.67038,-4.8524 -3.02148,-8.99414 -1.3511,-4.14182 -2.74202,-8.28789 -3.0918,-9.21289 -0.60481,-1.59937 -1.36629,-2.08757 -15.53515,-9.94922 -8.19469,-4.54683 -15.56577,-8.37948 -16.37891,-8.51757 -0.81314,-0.138 -2.18766,-0.21004 -3.05664,-0.16016 z"
       style="fill:none;stroke:#000000;stroke-width:0.2;stroke-miterlimit:4;stroke-dasharray:none;stroke-opacity:1" />
    <g
       id="g4646"
       transform="matrix(0,-1,-1,0,971.9678,649.97294)">
      <g
         id="g4568" />
      <path
         inkscape:connector-curvature="0"
         id="path4549"
         d="m 385.72651,415.44683 -3.1107,101.87535"
         style="fill:none;fill-rule:evenodd;stroke:#ff0000;stroke-width:0.2;stroke-linecap:butt;stroke-linejoin:miter;stroke-miterlimit:4;stroke-dasharray:0.2, 2.4;stroke-dashoffset:0;stroke-opacity:1" />
      <path
         inkscape:connector-curvature="0"
         id="path4566"
         d="m 457.96342,496.4179 4.74797,-97.98086"
         style="fill:none;fill-rule:evenodd;stroke:#ff0000;stroke-width:0.2;stroke-linecap:butt;stroke-linejoin:miter;stroke-miterlimit:4;stroke-dasharray:0.2, 2.4;stroke-dashoffset:0;stroke-opacity:1" />
    </g>
    <path
       style="fill:none;stroke:#ff00ff;stroke-width:0.2;stroke-miterlimit:4;stroke-dasharray:none;stroke-opacity:1"
       d="m 823.8828,447.93178 c -1.1674,0.0205 -2.3067,0.19114 -3.2422,0.50781 -2.702,0.91485 -5.154,2.97948 -6.166,5.19141 -1.1882,2.59691 -1.3881,8.43397 -2.1894,63.6582 -1.6267,16.67408 -0.4962,41.27833 -0.9278,53.88086 -0.1236,3.52596 -0.4968,25.24233 -0.8281,48.25782 -0.3312,23.01547 -0.782,49.23539 -1.002,58.26757 -0.4022,16.51272 -0.7439,45.22632 -0.8691,66.36329 -0.0658,11.10849 -0.0886,20.69773 0.008,24.08398 0.5266,18.49375 0.6001,21.60369 1.4063,58.96289 0.9877,64.73574 3.336,147.18859 4.3281,192.64449 0.214,9.8093 0.3682,11.7053 1.0605,13.045 1.0875,2.1044 3.4572,4.3847 5.4375,5.2324 9.0878,1.6998 19.4826,-0.6159 27.3243,-2.1934 1.8161,-0.3776 4.0776,-0.738 10.9023,-1.7402 14.2206,-2.0884 16.8617,-2.8836 19.5449,-5.8867 1.9708,-2.2059 2.652,-5.0009 3.5625,-14.6192 3.5205,-26.3519 4.894,-48.38184 6.6543,-64.78122 1.0783,-10.03408 1.969,-19.16503 1.9785,-20.29101 0.01,-1.12817 -0.091,-1.82957 -0.459,-2.3086 -0.3681,-0.47903 -1.0041,-0.73498 -2.0624,-0.9707 -0.5821,-0.12964 -0.9138,-0.37635 -1.2735,-0.48242 -0.1595,-0.047 -11.6646,0.16344 -11.7168,0.0371 -0.052,-0.12638 11.5154,-0.2201 11.5449,-0.37891 0.1182,-0.63529 0.7548,-1.975 2.2266,-3.36719 l 2.6973,-2.55273 0.5195,-4.49609 c 1.8804,-16.27755 2.4562,-21.72008 5.6133,-53.05274 0.6727,-6.67693 1.3396,-12.94868 1.4804,-13.9375 0.1407,-0.98882 1.2447,-11.61173 2.4532,-23.60547 2.6693,-26.49158 4.7309,-45.75733 6.5937,-61.5957 2.2017,-18.71895 2.1601,-17.07565 0.7422,-28.56836 -1.4979,-12.14172 -4.3354,-36.57807 -5.2558,-45.27344 -1.1706,-11.05701 -1.8346,-17.19773 -3.3145,-30.6289 -0.8052,-7.30849 -2.4037,-22.30796 -3.5527,-33.33203 -2.1767,-20.88441 -2.2543,-21.61006 -3.9493,-37.38672 -1.9066,-17.74497 -1.8794,-17.58989 -3.1718,-18.76172 -0.6376,-0.57813 -1.8969,-1.72015 -2.7969,-2.53906 -0.9001,-0.81902 -1.7601,-1.93508 -1.9121,-2.47852 -0.1248,-0.44594 0.3409,-0.84113 0.072,-0.84766 -5.8557,-0.14249 -13.5939,-0.19367 -11.8516,-0.21679 1.7422,-0.0231 12.9661,-0.0191 13.3926,-0.0469 1.1675,-0.0759 2.073,-0.41207 2.3711,-0.87891 0.6277,-0.98279 0.1368,-6.92673 -2.7891,-33.68945 -0.6089,-15.86997 -3.4368,-31.95609 -4.5703,-43.24219 -2.1118,-21.12436 -2.3938,-22.50643 -5.1094,-25.14453 -2.8847,-2.80247 -4.0585,-3.18946 -14.4414,-4.76758 -1.7303,-0.26298 -4.1221,-0.67985 -5.3145,-0.92578 -8.4116,-1.7727 -17.4801,-2.8013 -24.5703,-3.82617 -2.1011,-0.31069 -4.4271,-0.72831 -5.1679,-0.92773 -1.0477,-0.28193 -2.2427,-0.4111 -3.4102,-0.39063 z"
       id="path4356-9"
       inkscape:connector-curvature="0" />
    <path
       style="fill:none;stroke:#0000ff;stroke-width:0.2;stroke-miterlimit:4;stroke-dasharray:none;stroke-opacity:1"
       d="m 112.65786,735.18396 c -0.13232,20.30757 -0.90612,18.12989 8.55012,22.5596 18.3247,8.35194 32.16312,11.11835 52.5516,14.61029 8.42706,1.41404 14.86431,2.2259 26.30394,3.31767 17.43703,1.66405 23.21172,1.42905 40.6769,1.55005 13.30019,0.37954 25.95462,0.9803 36.03296,1.02272 l 15.52484,0.0752 7.21379,-2.09334 c 3.96759,-1.15127 8.22824,-2.38804 9.46811,-2.74817 1.23988,-0.36022 2.96386,-0.7812 3.83118,-0.93565 0.86722,-0.15435 1.78032,-0.42681 2.02899,-0.60539 0.74058,-0.53219 5.20897,-1.43719 5.5233,-1.11874 0.15975,0.16184 0.20061,5.31072 0.0908,11.44214 -0.15832,8.84255 -0.0733,11.25046 0.39504,11.64382 0.86482,0.72125 9.51865,1.28264 29.38597,1.90641 21.94854,0.72317 41.68866,1.64435 56.3481,2.4039 6.65621,0.34678 10.29115,0.37296 10.85048,0.0807 0.99764,-0.52561 1.70083,-2.19116 2.09801,-4.96943 0.2815,-1.96911 0.72878,-4.80856 1.69957,-10.78916 0.26087,-1.60703 0.59804,-3.83238 0.74929,-4.94522 0.26205,-1.92803 1.58258,-4.04008 4.79638,-7.67141 0.56988,-0.6439 1.54673,-1.83396 2.17077,-2.64461 0.62405,-0.81065 1.33948,-1.69371 1.58985,-1.96219 0.25037,-0.26857 1.37,-1.5961 2.48809,-2.95015 1.11807,-1.35394 2.13871,-2.56232 2.26807,-2.68528 0.12937,-0.12286 0.7927,-0.96165 1.47406,-1.86393 0.68137,-0.90228 1.49679,-1.90949 1.81206,-2.23824 0.31527,-0.32875 1.14988,-1.35934 1.8547,-2.29007 0.70482,-0.93082 1.63625,-2.03848 2.06984,-2.46156 0.43358,-0.42308 2.09487,-2.3808 3.69176,-4.35044 1.59687,-1.96964 3.01992,-3.6816 3.16234,-3.80447 0.14241,-0.12278 1.57088,-1.83481 3.1744,-3.8044 3.66337,-4.49973 4.31834,-5.07667 6.0557,-5.33406 0.77331,-0.11456 7.78877,-0.80166 15.58992,-1.52685 7.80114,-0.72518 23.702,-2.22281 35.33524,-3.32803 10.60785,-1.15383 24.30846,-2.37387 30.85696,-2.93341 3.09553,-0.26393 7.3507,-0.65862 9.45591,-0.8771 2.10522,-0.21859 8.18402,-0.781 13.50843,-1.24981 5.32442,-0.46882 12.72018,-1.13645 16.43502,-1.48365 38.45017,-3.48505 80.53507,-6.47995 117.29286,-10.03296 11.35074,-1.04396 11.88747,-1.11747 12.94996,-1.77136 1.0273,-0.63232 11.00969,-14.97788 11.01524,-15.82986 -1.04254,-0.85434 -2.47307,-1.57753 -3.4231,-2.42596 -1.1954,-1.07681 -3.11594,-2.60745 -4.26786,-3.40128 -1.15192,-0.79382 -2.36103,-1.70152 -2.68691,-2.01715 -2.00076,-1.93757 -3.09062,-2.25638 -6.60304,-1.93166 -7.83451,0.72417 -17.29509,-0.13269 -24.3419,-2.20605 -7.86729,-2.6624 -15.91945,-7.78198 -20.17789,-15.0566 -3.07388,-5.49904 -4.84917,-11.56684 -4.81725,-16.46494 0.008,-1.28487 -0.15674,-2.44387 -0.36693,-2.57574 -0.69403,-0.43513 -7.36315,0.48643 -7.96681,1.10091 -0.56317,0.57335 -0.91451,3.34011 -2.10392,16.56795 -0.78555,8.73636 -1.51491,16.76528 -1.71593,18.88922 -0.10535,1.11303 -0.34906,4.51072 -0.54158,7.55023 -0.98791,4.37194 -7.00678,4.39207 -17.78612,3.89499 -18.92383,-0.003 -31.84792,0.4299 -43.84474,0.53083 -9.15818,0.0737 -18.87928,0.21149 -21.60246,0.30615 -4.46393,0.15522 -13.50556,0.29671 -40.95504,0.64086 -4.95051,0.0617 -20.53542,0.2778 -34.63312,0.47955 -23.00258,0.25935 -41.78666,0.67052 -54.96496,0.76307 -15.83865,0.10751 -22.80901,0.007 -23.44587,-0.33967 -0.9282,-0.50456 -1.18547,-1.77496 -1.70326,-8.41078 -0.11593,-1.48578 -0.39386,-4.05775 -0.61762,-5.71534 -0.22375,-1.6577 -0.4022,-3.725 -0.39654,-4.59408 0.0122,-1.87926 -0.73855,-3.7284 -1.66023,-4.08901 -0.3648,-0.14268 -6.35959,-0.49215 -13.32177,-0.77652 -6.96218,-0.28437 -15.6952,-0.65138 -19.40671,-0.81546 -3.71151,-0.16409 -10.89879,-0.41363 -15.97172,-0.55458 -5.07294,-0.14096 -14.18337,-0.48863 -20.2454,-0.77273 -25.05255,-1.17387 -27.27177,-1.20873 -28.04959,-0.44098 -0.85663,0.84554 -1.09088,2.15654 -1.44691,8.09965 -0.52749,8.80585 -0.59439,12.77957 -1.057,13.97719 -0.58285,1.50883 -1.34766,0.95805 -13.64952,1.2024 -10.30621,0.10875 -16.96817,0.16605 -23.65102,0.31001 l -11.67865,0.24581 -4.09702,3.64268 c -2.2534,2.00356 -4.1991,3.76152 -4.32375,3.90671 -0.12475,0.14519 -1.12187,0.89811 -2.21595,1.67309 -1.4032,0.99408 -2.30881,1.68712 -3.58548,1.89795 -0.93405,0.15426 -12.95726,1.18373 -26.59136,2.33702 -17.68682,1.49609 -24.98954,2.36177 -25.5978,2.0311 -0.91398,-0.49676 -1.09347,-1.87621 -1.87617,-5.66959 -0.28112,-1.36316 -0.45701,-3.25865 -0.67718,-4.1551 -0.15268,-1.03992 -0.25523,-1.75664 -0.53882,-2.77489 -0.17098,-0.61394 -0.42421,-1.21016 -0.64641,-1.34941 -0.34998,-0.21949 -17.02238,4.42397 -22.33291,6.0087 -12.02507,3.48072 -26.56625,7.76218 -39.13039,11.58131 -10.29831,3.13038 -7.91562,9.21515 -7.65599,19.58662 z"
       id="path4360-5"
       inkscape:connector-curvature="0"
       sodipodi:nodetypes="cccscccccccssccccssscscccsscsscssscccscccccsccccsccssccccccccscscssscssccccsccsscccsccsc" />
    <path
       sodipodi:nodetypes="csccsssssscccsssssscsssccsccsccsssssssccc"
       inkscape:connector-curvature="0"
       id="path3436"
       d="m 476.29361,944.63322 c 1.55728,-6.6271 5.55764,-12.4227 11.04883,-16.00726 2.29359,-1.49722 3.10023,-2.28342 3.09938,-3.02084 -2.14319,-7.56828 -3.627,-15.10233 -5.22631,-23.07243 0.17048,-0.44426 0.94932,-0.64944 2.46519,-0.64944 0.81189,0 1.42002,-0.0504 1.82401,-0.17582 0.20199,-0.0627 9.35748,0.18728 9.45738,0.084 0.0999,-0.10328 -8.87687,-0.21959 -8.95769,-0.62145 -0.0591,-0.29415 -0.11446,-0.78799 -0.52859,-1.31177 -0.41413,-0.52378 -1.03317,-1.17175 -1.85751,-1.96849 l -2.77983,-2.68677 -0.30648,-5.99736 c -1.01842,-12.02735 -0.35883,-24.47164 0.25752,-35.47236 0.48001,-10.82395 3.66745,-37.97254 4.81306,-40.99467 0.32234,-0.85033 1.30432,-1.55675 3.59679,-2.5875 1.73437,-0.77981 3.35933,-1.41783 3.61101,-1.41783 0.0629,0 0.11779,-0.0158 0.16311,-0.0444 0.0453,-0.0286 0.0811,-0.0699 0.10583,-0.12085 0.0247,-0.051 9.43744,-0.24325 9.4386,-0.31049 0.001,-0.0672 -9.4092,-0.009 -9.43459,-0.0868 -0.0543,-0.16533 -0.33173,-0.36164 -0.74879,-0.56341 -0.41706,-0.20177 -0.97372,-0.40899 -1.58639,-0.59613 -0.61267,-0.18714 -1.28135,-0.35421 -1.92246,-0.47566 -0.6411,-0.12145 -1.25462,-0.19728 -1.75698,-0.20198 l -1.39928,-0.0131 2.61454,-3.87594 c 3.31143,-4.90908 7.53509,-8.98947 10.89674,-10.52712 7.58349,-3.98766 17.75201,1.34373 22.9355,6.86284 3.29966,3.65234 7.35404,13.95245 9.09916,23.11634 1.50572,7.9067 2.02762,14.88994 2.02606,27.1093 -0.70301,19.42431 -0.57588,35.60515 -6.30779,53.84895 -0.70078,2.1429 -2.5182,6.3954 -4.03869,9.45 -2.69277,5.40965 -2.75711,5.62266 -2.47853,8.20647 0.50456,4.67988 2.44405,8.41119 6.29692,12.11446 2.12276,2.0403 6.2007,4.3579 7.66798,4.3579 0.36391,0 0.66166,0.2641 0.66166,0.5869 0,1.0775 -2.51831,4.5718 -4.27959,5.9381 -4.26566,3.3091 -4.29413,3.3576 -4.74196,8.0911 -0.87754,9.2754 -4.93315,16.2333 -12.36696,21.2169 -19.24415,13.898 -44.33432,-9.1929 -41.36085,-28.18345 z"
       style="fill:none;stroke:#ff0000;stroke-width:0.2;stroke-miterlimit:4;stroke-dasharray:none;stroke-opacity:1" />
    <path
       sodipodi:nodetypes="cccscccccccssccccssscscccsscsscssscccscccccsccccsccssccccccccscscssscssccccsccsscccsccsc"
       inkscape:connector-curvature="0"
       id="path3438"
       d="m 35.657857,455.6175 c -0.13232,-20.30757 -0.90612,-18.12989 8.55012,-22.5596 18.3247,-8.35194 32.16312,-11.11835 52.5516,-14.61029 8.427063,-1.41404 14.864313,-2.2259 26.303943,-3.31767 17.43703,-1.66405 23.21172,-1.42905 40.6769,-1.55005 13.30019,-0.37954 25.95462,-0.9803 36.03296,-1.02272 l 15.52484,-0.0752 7.21379,2.09334 c 3.96759,1.15127 8.22824,2.38804 9.46811,2.74817 1.23988,0.36022 2.96386,0.7812 3.83118,0.93565 0.86722,0.15435 1.78032,0.42681 2.02899,0.60539 0.74058,0.53219 5.20897,1.43719 5.5233,1.11874 0.15975,-0.16184 0.20061,-5.31072 0.0908,-11.44214 -0.15832,-8.84255 -0.0733,-11.25046 0.39504,-11.64382 0.86482,-0.72125 9.51865,-1.28264 29.38597,-1.90641 21.94854,-0.72317 41.68866,-1.64435 56.3481,-2.4039 6.65621,-0.34678 10.29115,-0.37296 10.85048,-0.0807 0.99764,0.52561 1.70083,2.19116 2.09801,4.96943 0.2815,1.96911 0.72878,4.80856 1.69957,10.78916 0.26087,1.60703 0.59804,3.83238 0.74929,4.94522 0.26205,1.92803 1.58258,4.04008 4.79638,7.67141 0.56988,0.6439 1.54673,1.83396 2.17077,2.64461 0.62405,0.81065 1.33948,1.69371 1.58985,1.96219 0.25037,0.26857 1.37,1.5961 2.48809,2.95015 1.11807,1.35394 2.13871,2.56232 2.26807,2.68528 0.12937,0.12286 0.7927,0.96165 1.47406,1.86393 0.68137,0.90228 1.49679,1.90949 1.81206,2.23824 0.31527,0.32875 1.14988,1.35934 1.8547,2.29007 0.70482,0.93082 1.63625,2.03848 2.06984,2.46156 0.43358,0.42308 2.09487,2.3808 3.69176,4.35044 1.59687,1.96964 3.01992,3.6816 3.16234,3.80447 0.14241,0.12278 1.57088,1.83481 3.1744,3.8044 3.66337,4.49973 4.31834,5.07667 6.0557,5.33406 0.77331,0.11456 7.78877,0.80166 15.58992,1.52685 7.80114,0.72518 23.702,2.22281 35.33524,3.32803 10.60785,1.15383 24.30846,2.37387 30.85696,2.93341 3.09553,0.26393 7.3507,0.65862 9.45591,0.8771 2.10522,0.21859 8.18402,0.781 13.50843,1.24981 5.32442,0.46882 12.72018,1.13645 16.43502,1.48365 38.45017,3.48505 80.53507,6.47995 117.29286,10.03296 11.35074,1.04396 11.88747,1.11747 12.94996,1.77136 1.0273,0.63232 11.00969,14.97788 11.01524,15.82986 -1.04254,0.85434 -2.47307,1.57753 -3.4231,2.42596 -1.1954,1.07681 -3.11594,2.60745 -4.26786,3.40128 -1.15192,0.79382 -2.36103,1.70152 -2.68691,2.01715 -2.00076,1.93757 -3.09062,2.25638 -6.60304,1.93166 -7.83451,-0.72417 -17.29509,0.13269 -24.3419,2.20605 -7.86729,2.6624 -15.91945,7.78198 -20.17789,15.0566 -3.07388,5.49904 -4.84917,11.56684 -4.81725,16.46494 0.008,1.28487 -0.15674,2.44387 -0.36693,2.57574 -0.69403,0.43513 -7.36315,-0.48643 -7.96681,-1.10091 -0.56317,-0.57335 -0.91451,-3.34011 -2.10392,-16.56795 -0.78555,-8.73636 -1.51491,-16.76528 -1.71593,-18.88922 -0.10535,-1.11303 -0.34906,-4.51072 -0.54158,-7.55023 -0.98791,-4.37194 -7.00678,-4.39207 -17.78612,-3.89499 -18.92383,0.003 -31.84792,-0.4299 -43.84474,-0.53083 -9.15818,-0.0737 -18.87928,-0.21149 -21.60246,-0.30615 -4.46393,-0.15522 -13.50556,-0.29671 -40.95504,-0.64086 -4.95051,-0.0617 -20.53542,-0.2778 -34.63312,-0.47955 -23.00258,-0.25935 -41.78666,-0.67052 -54.96496,-0.76307 -15.83865,-0.10751 -22.80901,-0.007 -23.44587,0.33967 -0.9282,0.50456 -1.18547,1.77496 -1.70326,8.41078 -0.11593,1.48578 -0.39386,4.05775 -0.61762,5.71534 -0.22375,1.6577 -0.4022,3.725 -0.39654,4.59408 0.0122,1.87926 -0.73855,3.7284 -1.66023,4.08901 -0.3648,0.14268 -6.35959,0.49215 -13.32177,0.77652 -6.96218,0.28437 -15.6952,0.65138 -19.40671,0.81546 -3.71151,0.16409 -10.89879,0.41363 -15.97172,0.55458 -5.07294,0.14096 -14.18337,0.48863 -20.2454,0.77273 -25.05255,1.17387 -27.27177,1.20873 -28.04959,0.44098 -0.85663,-0.84554 -1.09088,-2.15654 -1.44691,-8.09965 -0.52749,-8.80585 -0.59439,-12.77957 -1.057,-13.97719 -0.58285,-1.50883 -1.34766,-0.95805 -13.64952,-1.2024 -10.30621,-0.10875 -16.96817,-0.16605 -23.65102,-0.31001 l -11.67865,-0.24581 -4.09702,-3.64268 c -2.2534,-2.00356 -4.1991,-3.76152 -4.32375,-3.90671 -0.12475,-0.14519 -1.12187,-0.89811 -2.21595,-1.67309 -1.4032,-0.99408 -2.30881,-1.68712 -3.58548,-1.89795 -0.93405,-0.15426 -12.95726,-1.18373 -26.59136,-2.33702 -17.68682,-1.49609 -24.98954,-2.36177 -25.5978,-2.0311 -0.91398,0.49676 -1.09347,1.87621 -1.87617,5.66959 -0.28112,1.36316 -0.45701,3.25865 -0.67718,4.1551 -0.15268,1.03992 -0.25523,1.75664 -0.53882,2.77489 -0.17098,0.61394 -0.42421,1.21016 -0.64641,1.34941 -0.34998,0.21949 -17.022383,-4.42397 -22.332913,-6.0087 -12.02507,-3.48072 -26.56625,-7.76218 -39.13039,-11.58131 -10.29831,-3.13038 -7.91562,-9.21515 -7.65599,-19.58662 z"
       style="fill:none;stroke:#0000ff;stroke-width:0.2;stroke-miterlimit:4;stroke-dasharray:none;stroke-opacity:1" />
    <path
       style="fill:none;stroke:#00ff00;stroke-width:0.2;stroke-miterlimit:4;stroke-dasharray:none;stroke-opacity:1"
       d="m 1166.1543,744.31069 -101.4863,0 c -10e-4,0.24015 -0.01,0.50979 -0.01,0.74805 -0.066,11.10849 -0.089,20.69773 0.01,24.08398 0.5266,18.49375 0.6,21.60369 1.4062,58.96289 0.9877,64.73574 3.336,147.18866 4.3281,192.64449 0.214,9.8093 0.3683,11.7053 1.0606,13.045 1.0875,2.1044 3.4572,4.3847 5.4375,5.2324 9.0878,1.6998 19.4825,-0.6159 27.3242,-2.1934 1.8161,-0.3776 4.0777,-0.738 10.9024,-1.7402 14.2206,-2.0884 16.8617,-2.8836 19.5449,-5.8867 1.9708,-2.2059 2.652,-5.0009 3.5625,-14.6192 3.5205,-26.35187 4.894,-48.38184 6.6543,-64.78122 1.0783,-10.03408 1.969,-19.16503 1.9785,-20.29101 0.01,-1.12817 -0.091,-1.82957 -0.459,-2.3086 -0.3681,-0.47903 -1.0042,-0.73498 -2.0625,-0.9707 -0.5821,-0.12964 -0.9137,-0.37635 -1.2734,-0.48242 -0.1595,-0.047 -11.6646,0.16345 -11.7168,0.0371 -0.052,-0.12638 11.5154,-0.2201 11.5449,-0.37891 0.1182,-0.63529 0.7548,-1.975 2.2266,-3.36719 l 2.6972,-2.55273 0.5196,-4.49609 c 1.8803,-16.27755 2.4561,-21.72008 5.6132,-53.05274 0.6727,-6.67693 1.3397,-12.94868 1.4805,-13.9375 0.1407,-0.98882 1.2446,-11.61173 2.4531,-23.60547 2.6693,-26.49158 4.731,-45.75733 6.5938,-61.5957 1.2695,-10.79362 1.7259,-14.81865 1.6699,-18.49414 z"
       id="path3451"
       inkscape:connector-curvature="0" />
    <path
       style="fill:none;stroke:#00ff00;stroke-width:0.2;stroke-miterlimit:4;stroke-dasharray:none;stroke-opacity:1"
       d="m 1083.8828,431.15361 c -1.1674,0.0205 -2.3067,0.19115 -3.2422,0.50782 -2.702,0.91484 -5.154,2.97947 -6.166,5.1914 -1.1882,2.59691 -1.3881,8.43398 -2.1894,63.6582 -1.6267,16.67408 -0.4962,41.27833 -0.9278,53.88086 -0.1236,3.52596 -0.4968,25.24233 -0.8281,48.25782 -0.3312,23.01547 -0.782,49.23539 -1.002,58.26757 -0.3975,16.32173 -0.7306,44.53259 -0.8593,65.59571 l 101.4843,0 c -0.042,-2.69152 -0.3268,-5.20034 -0.9257,-10.05469 -1.4979,-12.14172 -4.3355,-36.57807 -5.2559,-45.27344 -1.1706,-11.05701 -1.8346,-17.19773 -3.3145,-30.6289 -0.8051,-7.30849 -2.4037,-22.30797 -3.5527,-33.33203 -2.1767,-20.88441 -2.2542,-21.61006 -3.9492,-37.38672 -1.9066,-17.74497 -1.8795,-17.58989 -3.1719,-18.76172 -0.6376,-0.57813 -1.8969,-1.72016 -2.7969,-2.53906 -0.9001,-0.81902 -1.7601,-1.93508 -1.9121,-2.47852 -0.1248,-0.44594 0.3412,-0.84113 0.072,-0.84766 -5.8557,-0.14249 -13.5939,-0.19367 -11.8516,-0.21679 1.7422,-0.0231 12.9661,-0.0191 13.3926,-0.0469 1.1675,-0.0759 2.073,-0.41207 2.3711,-0.87891 0.6277,-0.98278 0.1368,-6.92673 -2.789,-33.68945 -0.6089,-15.86997 -3.4369,-31.95609 -4.5704,-43.24219 -2.1118,-21.12436 -2.3937,-22.50643 -5.1093,-25.14453 -2.8847,-2.80247 -4.0585,-3.18946 -14.4414,-4.76757 -1.7303,-0.26298 -4.1221,-0.67986 -5.3145,-0.92579 -8.4116,-1.7727 -17.4801,-2.8013 -24.5703,-3.82617 -2.1011,-0.31069 -4.4272,-0.72831 -5.168,-0.92773 -1.0477,-0.28193 -2.2426,-0.4111 -3.4101,-0.39063 l 0,0 z"
       id="path3440"
       inkscape:connector-curvature="0" />
    <path
       sodipodi:nodetypes="cscssscccssccssccccccssccsccsccc"
       inkscape:connector-curvature="0"
       id="path3442"
       d="m 245.4407,946.13976 c 0.30757,-10.72833 4.61766,-10.13586 12.33998,-12.87009 7.72232,-2.73422 16.10686,-5.10765 24.31335,-7.39275 2.98963,-0.88927 11.83623,-3.18846 16.03242,-4.36844 9.21469,-2.59123 14.16547,-3.99176 15.74775,-4.58526 0,0 0.90856,-0.30911 1.10997,0.0842 0.74121,1.44759 1.1681,6.00275 1.1681,6.00275 l 1.47211,6.64071 0.59272,1.35063 c 1.85264,0.17648 15.03705,-1.03471 28.13406,-2.23403 6.54851,-0.59966 16.47811,-1.24054 21.55553,-1.85819 5.07741,-0.61765 5.30263,-1.21206 6.05415,-1.89556 4.31806,-3.95524 9.39677,-8.13586 10.26393,-8.78976 0.72007,-0.54305 2.55547,-0.71764 8.97947,-0.85418 7.00658,-0.1489 27.98454,-0.51375 36.11823,-0.89815 4.75974,-0.22495 5.44267,-0.47635 2.523,3.0459 -1.42751,1.72222 -3.80885,4.29859 -4.75168,5.45519 -6.53504,7.02825 -12.73107,14.57908 -18.38251,20.90771 -1.27929,1.47029 -2.92584,3.57013 -3.88812,4.58991 -1.12993,1.91922 -3.05537,3.65365 -4.2665,5.00774 -4.52149,5.11488 -5.67227,6.05231 -5.67227,6.05231 0,0 -1.93584,5.23013 -2.93008,8.27202 -0.99425,3.0419 -2.13728,6.40507 -2.54004,7.47371 -0.40275,1.06864 -0.96646,2.59663 -1.25286,3.39556 -0.2863,0.79891 0.1178,0.18554 -0.70622,0.77584 -1.68851,1.20968 -19.19402,11.54991 -25.95328,14.82171 -4.30736,2.08498 -4.52927,2.14515 -7.84943,2.12847 -28.72314,-1.19484 -50.61935,-4.09497 -76.82624,-11.11431 -10.88486,-2.95185 -25.81966,-8.82482 -28.1114,-11.05453 -1.46462,-1.425 -2.87426,-4.11438 -2.80431,-5.35018 -0.81614,-7.02394 -0.51368,-18.01414 -0.46983,-22.73897 z"
       style="fill:none;stroke:#0000ff;stroke-width:0.2;stroke-miterlimit:4;stroke-dasharray:none;stroke-opacity:1" />
    <path
       inkscape:connector-curvature="0"
       id="path3453"
       d="m 942.8828,438.93178 c -1.1674,0.0205 -2.3067,0.19114 -3.2422,0.50781 -2.702,0.91485 -5.154,2.97948 -6.166,5.19141 -1.1882,2.59691 -1.3881,8.43397 -2.1894,63.6582 -1.6267,16.67408 -0.4962,41.27833 -0.9278,53.88086 -0.1236,3.52596 -0.4968,25.24233 -0.8281,48.25782 -0.3312,23.01547 -0.782,49.23539 -1.002,58.26757 -0.4022,16.51272 -0.7439,45.22632 -0.8691,66.36329 -0.0658,11.10849 -0.0886,20.69773 0.008,24.08398 0.5266,18.49375 0.6001,21.60369 1.4063,58.96289 0.9877,64.73574 3.336,147.18859 4.3281,192.64449 0.214,9.8093 0.3682,11.7053 1.0605,13.045 1.0875,2.1044 3.4572,4.3847 5.4375,5.2324 9.0878,1.6998 19.4826,-0.6159 27.3243,-2.1934 1.8161,-0.3776 4.0776,-0.738 10.9023,-1.7402 14.2206,-2.0884 16.8617,-2.8836 19.5449,-5.8867 1.9708,-2.2059 2.652,-5.0009 3.5625,-14.6192 3.5205,-26.3519 4.894,-48.38184 6.6543,-64.78122 1.0783,-10.03408 1.969,-19.16503 1.9785,-20.29101 0.01,-1.12817 -0.091,-1.82957 -0.459,-2.3086 -0.3681,-0.47903 -1.0041,-0.73498 -2.0624,-0.9707 -0.5821,-0.12964 -0.9138,-0.37635 -1.2735,-0.48242 -0.1595,-0.047 -11.6646,0.16344 -11.7168,0.0371 -0.052,-0.12638 11.5154,-0.2201 11.5449,-0.37891 0.1182,-0.63529 0.7548,-1.975 2.2266,-3.36719 l 2.6973,-2.55273 0.5195,-4.49609 c 1.8804,-16.27755 2.4562,-21.72008 5.6133,-53.05274 0.6727,-6.67693 1.3396,-12.94868 1.4804,-13.9375 0.1407,-0.98882 1.2447,-11.61173 2.4532,-23.60547 2.6693,-26.49158 4.7309,-45.75733 6.5937,-61.5957 2.2017,-18.71895 2.1601,-17.07565 0.7422,-28.56836 -1.4979,-12.14172 -4.3354,-36.57807 -5.2558,-45.27344 -1.1706,-11.05701 -1.8346,-17.19773 -3.3145,-30.6289 -0.8052,-7.30849 -2.4037,-22.30796 -3.5527,-33.33203 -2.1767,-20.88441 -2.2543,-21.61006 -3.9493,-37.38672 -1.9066,-17.74497 -1.8794,-17.58989 -3.1718,-18.76172 -0.6376,-0.57813 -1.8969,-1.72015 -2.7969,-2.53906 -0.9001,-0.81902 -1.7601,-1.93508 -1.9121,-2.47852 -0.1248,-0.44594 0.3409,-0.84113 0.072,-0.84766 -5.8557,-0.14249 -13.5939,-0.19367 -11.8516,-0.21679 1.7422,-0.0231 12.9661,-0.0191 13.3926,-0.0469 1.1675,-0.0759 2.073,-0.41207 2.3711,-0.87891 0.6277,-0.98279 0.1368,-6.92673 -2.7891,-33.68945 -0.6089,-15.86997 -3.4368,-31.95609 -4.5703,-43.24219 -2.1118,-21.12436 -2.3938,-22.50643 -5.1094,-25.14453 -2.8847,-2.80247 -4.0585,-3.18946 -14.4414,-4.76758 -1.7303,-0.26298 -4.1221,-0.67985 -5.3145,-0.92578 -8.4116,-1.7727 -17.4801,-2.8013 -24.5703,-3.82617 -2.1011,-0.31069 -4.4271,-0.72831 -5.1679,-0.92773 -1.0477,-0.28193 -2.2427,-0.4111 -3.4102,-0.39063 z"
       style="fill:none;stroke:#ff00ff;stroke-width:0.2;stroke-miterlimit:4;stroke-dasharray:none;stroke-opacity:1" />
    <text
       xml:space="preserve"
       style="font-style:normal;font-weight:normal;font-size:40px;line-height:125%;font-family:sans-serif;letter-spacing:0px;word-spacing:0px;fill:#000000;fill-opacity:1;stroke:none;stroke-width:1px;stroke-linecap:butt;stroke-linejoin:miter;stroke-opacity:1"
       x="1084"
       y="382.36221"
       id="text3455"
       sodipodi:linespacing="125%"><tspan
         sodipodi:role="line"
         id="tspan3457"
         x="1084"
         y="382.36221">3donly</tspan></text>
    <text
       xml:space="preserve"
       style="font-style:normal;font-weight:normal;font-size:40px;line-height:125%;font-family:sans-serif;letter-spacing:0px;word-spacing:0px;fill:#000000;fill-opacity:1;stroke:none;stroke-width:1px;stroke-linecap:butt;stroke-linejoin:miter;stroke-opacity:1"
       x="833"
       y="383.36221"
       id="text3459"
       sodipodi:linespacing="125%"><tspan
         sodipodi:role="line"
         id="tspan3461"
         x="833"
         y="383.36221">texture2d</tspan></text>
    <text
       xml:space="preserve"
       style="font-style:normal;font-weight:normal;font-size:40px;line-height:125%;font-family:sans-serif;letter-spacing:0px;word-spacing:0px;fill:#000000;fill-opacity:1;stroke:none;stroke-width:1px;stroke-linecap:butt;stroke-linejoin:miter;stroke-opacity:1"
       x="370"
       y="415.36221"
       id="text3463"
       sodipodi:linespacing="125%"><tspan
         sodipodi:role="line"
         id="tspan3465"
         x="370"
         y="415.36221">2d texture copy</tspan></text>
    <text
       xml:space="preserve"
       style="font-style:normal;font-weight:normal;font-size:40px;line-height:125%;font-family:sans-serif;letter-spacing:0px;word-spacing:0px;fill:#000000;fill-opacity:1;stroke:none;stroke-width:1px;stroke-linecap:butt;stroke-linejoin:miter;stroke-opacity:1"
       x="318"
       y="603.36218"
       id="text3467"
       sodipodi:linespacing="125%"><tspan
         sodipodi:role="line"
         id="tspan3469"
         x="318"
         y="603.36218">2d &amp; 3d</tspan></text>
    <text
       xml:space="preserve"
       style="font-style:normal;font-weight:normal;font-size:40px;line-height:125%;font-family:sans-serif;letter-spacing:0px;word-spacing:0px;fill:#000000;fill-opacity:1;stroke:none;stroke-width:1px;stroke-linecap:butt;stroke-linejoin:miter;stroke-opacity:1"
       x="48"
       y="1007.3622"
       id="text3471"
       sodipodi:linespacing="125%"><tspan
         sodipodi:role="line"
         id="tspan3473"
         x="48"
         y="1007.3622">2d only</tspan></text>
  </g>
</svg>
